<svg width="512" height="512" viewBox="0 0 512 512" fill="none" xmlns="http://www.w3.org/2000/svg">
<path d="M278.277 413.759L279.008 412.325C195.013 412.325 116.132 342.05 115.401 255.283C103.715 283.249 84.7249 334.88 102.254 390.095C107.367 407.305 121.974 443.877 164.337 478.297C179.675 490.487 196.474 499.092 214.003 505.546C233.723 509.849 254.905 512 276.816 512C377.609 512 462.334 466.824 510.539 396.549L405.364 350.655C375.418 389.378 327.943 413.759 278.277 413.759ZM0 254.566C0 290.42 7.30376 324.123 20.4507 354.958C55.5092 91.7871 278.277 98.2409 278.277 98.2409V98.958C328.673 98.958 376.148 123.339 406.094 162.062L512 115.451C463.795 45.1765 378.34 0 276.816 0C119.053 0 0 109.714 0 254.566Z" fill="#EE5F7F"/>
</svg>
